<svg width="226" height="34" viewBox="0 0 226 34" fill="none" xmlns="http://www.w3.org/2000/svg">
<path d="M13.0861 4.88V4.6L16.9397 4.52L16.8995 6.56C16.8995 8.37333 16.9397 10.2267 17.02 12.12C17.0467 12.76 17.0734 13.5467 17.1002 14.48C17.1269 15.4133 17.1404 16.5067 17.1404 17.76L17.1002 19.84C17.0734 20.1867 17.0601 20.7333 17.0601 21.48C17.0066 23.4267 16.8862 25.04 16.6988 26.32C16.5383 27.6 16.1235 28.8 15.4544 29.92C14.8122 31.04 13.8086 31.8533 12.4438 32.36C11.1593 33 9.64731 33.32 7.90785 33.32C6.94445 33.32 5.95431 33.2133 4.93738 33C3.14441 32.4667 1.87326 31.2267 1.12396 29.28C0.374653 27.3067 0 25.1067 0 22.68L0.0401414 21.48C0.30775 21.4267 0.816208 21.4 1.56551 21.4C2.5289 21.4 3.31835 21.4533 3.93385 21.56V21.72L3.97399 22.4C4.05428 23.52 4.16132 24.48 4.29512 25.28C4.42893 26.08 4.80358 26.8933 5.41908 27.72C6.03459 28.5467 6.97122 28.96 8.22898 28.96C9.83463 28.96 11.0389 28.5467 11.8417 27.72C12.6445 26.8933 13.046 25.9867 13.046 25C13.0728 23.9867 13.0861 23.4133 13.0861 23.28L13.046 20.2C12.9924 16.9467 12.9657 14.4 12.9657 12.56C12.9657 10 13.0058 7.44 13.0861 4.88ZM22.2835 33H22.2032L19.1525 32.96H19.032C18.9518 32.48 18.9116 31.8667 18.9116 31.12L18.9518 29.16C18.9785 28.92 18.9919 28.64 18.9919 28.32C19.4736 28.1333 20.1159 28.04 20.9187 28.04C21.6679 28.04 22.2032 28.1067 22.5243 28.24C22.5243 28.3733 22.4842 29.0933 22.4039 30.4C22.3236 31.7067 22.2835 32.5467 22.2835 32.92V33ZM39.9639 5.24C40.3385 5.21333 40.7935 5.22667 41.3287 5.28V5.32C40.5526 7.8 39.6294 10.28 38.5589 12.76C37.5152 15.2133 36.2174 18.08 34.6652 21.36C33.3807 24.1067 32.3638 26.3067 31.6145 27.96C30.8651 29.5867 30.1694 31.2667 29.5271 33C29.4468 32.9733 29.2996 32.96 29.0855 32.96C28.8447 32.96 28.644 32.9733 28.4834 33C28.0285 33 27.6806 33.0133 27.4397 33.04C27.2792 33.04 27.0785 33.04 26.8376 33.04C26.5968 33.0667 26.3426 33.0667 26.0749 33.04H25.5932H25.513C26.3961 30.6667 27.9616 26.68 30.2095 21.08L30.5708 20.16C30.2228 19.3067 29.6877 18.24 28.9651 16.96C28.7243 16.3467 28.3898 15.6133 27.9616 14.76C27.5602 13.9067 27.2792 13.3333 27.1186 13.04C26.289 11.3867 25.62 9.96 25.1116 8.76C24.6031 7.56 24.2016 6.41333 23.9073 5.32C24.2552 5.32 24.7503 5.29333 25.3925 5.24C25.7672 5.18667 26.0481 5.16 26.2355 5.16C26.744 5.16 27.1588 5.22667 27.4799 5.36C28.2559 7.38667 29.139 9.42667 30.1292 11.48C31.1194 13.5333 32.0427 15.2533 32.899 16.64C33.9961 14.3467 35.254 11.3333 36.6723 7.6L37.5152 5.4C38.1307 5.29333 38.947 5.24 39.9639 5.24ZM40.6095 9.2C41.0645 7.78667 41.8406 6.77333 42.9377 6.16C44.5434 5.38667 46.3632 5 48.397 5C50.2168 5 51.8358 5.36 53.2541 6.08C54.6991 6.77333 55.676 7.85333 56.1844 9.32C56.6929 10.44 56.9471 11.96 56.9471 13.88C56.9471 14.7333 56.9337 15.36 56.9069 15.76C56.8534 16.6933 56.8266 18.0667 56.8266 19.88C56.8266 20.3333 56.8133 20.9067 56.7865 21.6C56.7865 22.2667 56.7598 23.0533 56.7062 23.96L56.5858 25.28C56.3985 27.5467 55.89 29.3467 55.0604 30.68C54.3647 31.64 53.321 32.36 51.9294 32.84C50.5646 33.32 49.1195 33.56 47.5941 33.56C47.0321 33.56 46.6174 33.5467 46.3497 33.52C44.316 33.36 42.7772 32.7467 41.7335 31.68C40.6898 30.5867 40.1413 28.7867 40.0877 26.28L39.9673 23.76C39.9406 23.2267 39.9004 22.3067 39.8468 21C39.7934 19.6667 39.7666 18.4533 39.7666 17.36C39.7666 16.1333 39.8067 14.92 39.887 13.72C39.9138 12.12 40.1546 10.6133 40.6095 9.2ZM53.4548 20.52V19.12L53.4146 15.92C53.3076 14.1067 53.2139 12.88 53.1336 12.24C53.0534 11.5733 52.6519 10.7867 51.9294 9.88C51.2068 8.97333 50.0161 8.52 48.3568 8.52C46.3231 8.52 44.8913 9.41333 44.0617 11.2C43.2589 12.9867 42.8574 15.7067 42.8574 19.36C42.8574 21.6 42.8976 23.3467 42.9779 24.6C43.0849 25.8267 43.2857 26.8267 43.58 27.6C43.8744 28.3467 44.3293 28.9333 44.9448 29.36C45.5871 29.8133 46.5103 30.04 47.7145 30.04C49.6146 30.04 50.9928 29.6533 51.8491 28.88C52.7055 28.1067 53.1738 26.9733 53.2541 25.48C53.2541 24.68 53.2809 23.7333 53.3343 22.64C53.3879 21.5467 53.4281 20.84 53.4548 20.52ZM71.695 9.12C71.695 7.78667 71.7083 6.8 71.7351 6.16C72.9394 6.02667 73.7556 5.96 74.1838 5.96C74.826 5.96 75.3211 6.05333 75.669 6.24C75.8028 9.09333 75.8697 11.6667 75.8697 13.96C75.8697 18.5467 75.6422 22.88 75.1873 26.96C74.9464 28.7733 74.2507 30.28 73.0999 31.48C71.9492 32.68 70.4506 33.3733 68.6041 33.56C68.3098 33.5867 67.8816 33.6 67.3196 33.6C64.9111 33.6 62.8506 33.0267 61.1378 31.88C59.4519 30.7067 58.5554 28.9867 58.4484 26.72C58.4216 25.7067 58.4082 24.16 58.4082 22.08C58.4082 19.9467 58.4216 18.3333 58.4484 17.24C58.5018 14.2533 58.5286 12.0267 58.5286 10.56L58.4885 5.84L58.4484 5.8H58.4885L60.4554 5.76C61.2315 5.76 61.8737 5.81333 62.3822 5.92C62.3554 6.42666 62.3421 7.14666 62.3421 8.08L62.3019 9.68C62.2216 12.24 62.1815 14.48 62.1815 16.4C62.1815 19.1733 62.2886 21.44 62.5026 23.2C62.7167 24.96 63.1048 26.5733 63.6667 28.04C64.0949 28.7067 64.6971 29.16 65.4731 29.4C66.0083 29.5333 66.4766 29.6 66.878 29.6C67.5738 29.6 68.216 29.4667 68.8048 29.2C69.3936 28.9067 69.8485 28.48 70.1696 27.92C70.7851 26.5067 71.2 24.7733 71.414 22.72C71.6281 20.64 71.7351 18.16 71.7351 15.28L71.695 9.12ZM94.2096 29C94.1828 29.2667 94.1694 29.6533 94.1694 30.16C94.1694 30.56 94.1962 31.24 94.2497 32.2V33H90.8377C90.5166 32.36 90.1687 31.6933 89.794 31C89.4461 30.3067 89.0983 29.6267 88.7504 28.96C88.4292 28.3467 87.5729 26.6933 86.1813 24C84.7897 21.28 83.5052 18.68 82.3277 16.2C82.194 15.9067 82.0601 15.6 81.9263 15.28C81.7926 14.96 81.6988 14.7733 81.6453 14.72C81.5918 14.6667 81.5517 14.72 81.5249 14.88V16.04C81.5249 16.7867 81.5249 18.1333 81.5249 20.08C81.5517 22.0267 81.5651 25.08 81.5651 29.24V30.28C81.5651 31.5867 81.5784 32.4933 81.6052 33C81.1503 33.1067 80.6953 33.1467 80.2404 33.12C79.9461 33.12 79.5312 33.0933 78.996 33.04C78.3537 32.9867 77.8854 32.96 77.5911 32.96V30.16C77.5911 28.4533 77.5643 26.0267 77.5108 22.88L77.4706 15.72C77.4706 11.48 77.5911 7.90667 77.8319 5C78.153 4.94667 78.4207 4.92 78.6347 4.92L79.3171 4.96C80.6819 5.04 81.3643 5.13333 81.3643 5.24C81.6855 6.01333 82.0468 6.8 82.4482 7.6C82.8496 8.4 83.3313 9.33333 83.8933 10.4C85.2046 12.7733 86.5827 15.52 88.0278 18.64C89.4729 21.7333 90.356 23.72 90.6771 24.6C90.7039 23.5333 90.6638 21.7867 90.5567 19.36L90.4764 16.68C90.423 13.72 90.3694 11.6 90.3159 10.32L90.2757 8.16V6.84V4.76C90.918 4.68 91.5871 4.64 92.2828 4.64C93.1391 4.69333 93.7814 4.76 94.2096 4.84V17.72C94.2364 19.2133 94.2497 21.4933 94.2497 24.56L94.2096 29ZM104.328 19.2V19.16C104.328 19.1333 104.328 19.1333 104.328 19.16C104.354 19.16 104.394 19.1333 104.448 19.08C104.875 18.8133 105.866 18.68 107.418 18.68C108.596 18.68 109.907 18.7333 111.352 18.84L112.677 18.92L112.797 18.96C113.011 21.0933 113.118 22.7733 113.118 24C113.118 25.52 113.011 26.8533 112.797 28C112.663 29.28 112.276 30.2933 111.633 31.04C110.991 31.7867 110.108 32.36 108.984 32.76C107.03 33.3467 105.277 33.64 103.725 33.64C102.467 33.64 101.383 33.44 100.474 33.04C99.1087 32.4533 98.1052 31.5733 97.4629 30.4C96.8474 29.2267 96.4326 27.6 96.2186 25.52C96.058 24 95.9376 22.7733 95.8573 21.84C95.8037 20.9067 95.777 19.8667 95.777 18.72C95.777 17.7333 95.7904 16.9467 95.8171 16.36C95.8706 13.9867 95.9911 12.1467 96.1784 10.84C96.3925 9.50667 96.9678 8.28 97.9045 7.16C98.8679 6.04 100.394 5.33333 102.481 5.04C103.096 4.96 103.698 4.92 104.287 4.92C106.776 4.92 108.823 5.58667 110.429 6.92C112.035 8.22667 112.837 10.08 112.837 12.48C112.837 12.7467 112.81 13.1733 112.757 13.76L112.717 14C112.61 13.9733 112.208 13.9867 111.513 14.04C110.871 14.0933 110.349 14.12 109.947 14.12C109.652 14.12 109.345 14.0933 109.024 14.04C108.97 14.04 108.944 13.9733 108.944 13.84C108.944 13.7067 108.944 13.44 108.944 13.04C108.97 12.64 108.984 12.1733 108.984 11.64C108.957 11.2133 108.756 10.7733 108.382 10.32C108.006 9.84 107.512 9.44 106.897 9.12C106.307 8.8 105.678 8.62667 105.01 8.6L104.287 8.56C103.029 8.56 102.08 8.84 101.437 9.4C100.795 9.93333 100.34 10.7333 100.072 11.8C99.5904 13.64 99.3496 16.2 99.3496 19.48C99.3496 20.8933 99.3763 21.9467 99.4299 22.64C99.5904 24.2933 99.7777 25.56 99.9919 26.44C100.233 27.32 100.54 28 100.915 28.48C101.317 28.96 101.892 29.3467 102.642 29.64C103.364 29.8533 104.087 29.96 104.809 29.96C105.585 29.96 106.321 29.8133 107.017 29.52C107.123 29.4667 107.324 29.3867 107.619 29.28C107.913 29.1467 108.194 28.9333 108.462 28.64C108.756 28.3467 109.037 27.7867 109.305 26.96C109.385 26.0267 109.425 25.2533 109.425 24.64C109.425 23.7867 109.371 23.1467 109.265 22.72C109.185 22.2933 109.117 22.0533 109.064 22C108.957 21.9733 108.422 21.96 107.459 21.96C107.057 21.9333 106.669 21.9333 106.294 21.96C105.946 21.96 105.718 21.96 105.612 21.96C105.023 21.96 104.649 21.9333 104.488 21.88C104.434 21.5333 104.408 21.1067 104.408 20.6C104.408 20.4133 104.381 19.9467 104.328 19.2ZM116.708 4.68C115.464 4.68 114.661 3.68 114.661 2.48C114.661 1.12 115.664 0 117.391 0C119.117 0 120.481 1.4 120.481 3.56C120.481 5.8 119.036 8 115.464 9.08V8.04C117.712 7.44 118.956 6.04 118.956 4.76C118.956 4.28 118.755 4 118.474 4C118.033 4 117.792 4.68 116.708 4.68ZM125.978 33.288C124.876 33.288 123.864 32.784 123.142 32.082C122.853 31.794 122.636 31.812 122.564 32.226L122.401 33.054H121.95L121.986 27.672H122.455C122.582 30.282 123.955 32.532 125.942 32.532C127.495 32.532 128.163 31.326 128.163 30.21C128.163 28.554 126.881 27.492 125.4 26.376C123.593 25.008 122.076 23.874 122.076 21.75C122.076 19.608 123.629 18.312 125.671 18.312C126.718 18.312 127.441 18.636 128.073 19.23C128.38 19.5 128.633 19.428 128.687 19.032L128.778 18.492H129.211L129.428 23.226H128.976C128.796 21.012 127.712 19.05 125.797 19.05C124.46 19.05 123.738 20.022 123.738 21.138C123.738 22.542 124.786 23.406 126.465 24.666C128.344 26.052 129.825 27.294 129.825 29.508C129.825 31.776 128.2 33.288 125.978 33.288ZM133.467 33V32.568C135.147 32.568 135.382 32.244 135.382 31.146V20.454C135.382 19.356 135.147 19.032 133.467 19.032V18.6H138.778C141.939 18.6 143.854 19.878 143.854 22.668C143.854 25.512 141.885 26.916 139.32 26.934C138.525 26.952 137.929 26.808 137.405 26.61V31.146C137.405 32.244 137.658 32.568 139.41 32.568V33H133.467ZM138.977 26.124C140.873 26.124 141.831 24.684 141.831 22.668C141.831 20.436 140.602 19.338 138.868 19.338C138.417 19.338 138.055 19.41 137.73 19.536C137.513 19.626 137.405 19.788 137.405 20.022V25.818C137.82 25.98 138.326 26.124 138.977 26.124ZM149.964 33.288C146.55 33.288 144.31 29.994 144.31 25.8C144.31 21.606 146.55 18.33 149.91 18.33C153.324 18.33 155.564 21.642 155.564 25.818C155.564 30.03 153.342 33.288 149.964 33.288ZM150.344 32.514C152.403 32.514 153.487 30.012 153.487 27.33C153.487 23.532 152.132 19.104 149.531 19.104C147.49 19.104 146.388 21.624 146.388 24.27C146.388 28.104 147.724 32.514 150.344 32.514ZM163.783 28.05L165.318 31.038C165.878 32.136 166.167 32.568 167.486 32.568V33H166.601C164.198 33 163.891 32.766 163.042 30.948L160.676 26.178H160.405C160.062 26.178 159.737 26.16 159.43 26.142V31.146C159.43 32.244 159.682 32.568 161.362 32.568V33H155.492V32.568C157.172 32.568 157.406 32.244 157.406 31.146V20.454C157.406 19.356 157.172 19.032 155.492 19.032V18.6H161.055C164.289 18.6 165.734 19.986 165.734 22.272C165.734 24.684 164.054 25.746 161.94 26.07C162.663 26.286 163.151 26.682 163.783 28.05ZM159.43 20.004V25.44C159.755 25.476 160.098 25.494 160.459 25.494C162.302 25.494 163.656 24.594 163.656 22.326C163.656 20.364 162.645 19.338 160.893 19.338C160.513 19.338 160.134 19.392 159.755 19.518C159.52 19.608 159.43 19.788 159.43 20.004ZM170.066 19.41H168.892C167.573 19.41 167.14 19.806 166.959 22.29L166.435 22.254L166.67 19.14L166.724 18.6H176.677L176.713 19.14L176.948 22.254L176.442 22.29C176.244 19.806 175.828 19.41 174.492 19.41H173.317C172.938 19.41 172.721 19.626 172.721 20.022V31.146C172.721 32.244 172.956 32.568 174.636 32.568V33H168.747V32.568C170.445 32.568 170.68 32.244 170.68 31.146V20.022C170.68 19.626 170.463 19.41 170.066 19.41ZM187.19 18.6L187.245 19.14L187.497 22.254L187.01 22.29C186.793 19.806 186.377 19.41 185.095 19.41H181.952C181.392 19.41 181.103 19.716 181.103 20.256V25.548H183.56C184.661 25.548 184.987 25.278 184.987 23.424H185.42V28.374H184.987C184.987 26.52 184.661 26.268 183.56 26.268H181.103V31.146C181.103 32.244 181.356 32.568 183.18 32.568V33H177.147V32.568C178.827 32.568 179.062 32.244 179.062 31.146V20.454C179.062 19.356 178.827 19.032 177.147 19.032V18.6H187.19ZM193.149 33.288C189.735 33.288 187.495 29.994 187.495 25.8C187.495 21.606 189.735 18.33 193.095 18.33C196.509 18.33 198.749 21.642 198.749 25.818C198.749 30.03 196.527 33.288 193.149 33.288ZM193.529 32.514C195.588 32.514 196.672 30.012 196.672 27.33C196.672 23.532 195.317 19.104 192.716 19.104C190.675 19.104 189.573 21.624 189.573 24.27C189.573 28.104 190.909 32.514 193.529 32.514ZM204.567 18.6V19.032C202.869 19.032 202.634 19.356 202.634 20.454V31.002C202.634 32.01 202.85 32.19 203.754 32.19H205.939C207.294 32.19 207.818 31.65 208.486 28.752L208.992 28.878L208.161 32.496L208.053 33H198.678V32.568C200.358 32.568 200.593 32.244 200.593 31.146V20.454C200.593 19.356 200.358 19.032 198.678 19.032V18.6H204.567ZM210.846 31.146V20.454C210.846 19.356 210.611 19.032 208.931 19.032V18.6H214.82V19.032C213.122 19.032 212.887 19.356 212.887 20.454V31.146C212.887 32.244 213.122 32.568 214.82 32.568V33H208.931V32.568C210.611 32.568 210.846 32.244 210.846 31.146ZM220.4 33.288C216.986 33.288 214.746 29.994 214.746 25.8C214.746 21.606 216.986 18.33 220.346 18.33C223.76 18.33 226 21.642 226 25.818C226 30.03 223.778 33.288 220.4 33.288ZM220.78 32.514C222.839 32.514 223.923 30.012 223.923 27.33C223.923 23.532 222.568 19.104 219.967 19.104C217.926 19.104 216.824 21.624 216.824 24.27C216.824 28.104 218.16 32.514 220.78 32.514Z" fill="#21A0AA"/>
</svg>
