<svg width="101" height="131" viewBox="0 0 101 131" fill="none" xmlns="http://www.w3.org/2000/svg">
<path d="M64.7733 8.75412L17.8232 12.9832C16.2001 13.1294 14.8503 14.759 14.8236 16.6045L13.2314 126.498C13.2047 128.343 14.5107 129.734 16.1338 129.587L86.4261 123.256C88.0492 123.11 89.399 121.48 89.4257 119.634L90.6336 36.2666L64.7733 8.75412Z" fill="#081832"/>
<path d="M70.3917 2.36705L23.4268 6.59747C21.8038 6.74367 20.454 8.37326 20.4272 10.2188L18.835 120.112C18.8083 121.958 20.1144 123.348 21.7374 123.202L92.0298 116.87C93.6529 116.724 95.0027 115.094 95.0294 113.249L96.237 29.8976L70.3917 2.36705Z" fill="white" stroke="#081832" stroke-width="2" stroke-miterlimit="10" stroke-linejoin="round"/>
<path d="M70.3475 2.38732C69.7776 3.07538 69.4106 3.99649 69.3963 4.98637L69.0363 29.834C69.0078 31.797 70.3865 33.2646 72.098 33.1104L93.9205 31.1447C94.7763 31.0676 95.5642 30.5945 96.1343 29.8897" stroke="#081832" stroke-width="2" stroke-miterlimit="10" stroke-linejoin="round"/>
<path d="M64.3154 80.0574C64.3154 80.0574 62.0894 79.1017 59.2624 79.9596C58.7888 80.1028 58.3145 80.2963 57.8097 80.5596C56.8298 81.0668 55.8167 81.8283 54.8283 82.9226L54.5586 83.2318L54.3034 83.5564C53.402 84.7434 52.7953 85.9375 52.4104 87.078C52.2105 87.6489 52.0845 88.2132 51.9734 88.7594C51.3958 92.0118 52.377 94.4703 52.377 94.4703C57.8365 104.132 71.7116 101.492 71.7116 101.492C71.7116 101.492 73.1645 85.6275 64.3154 80.0574Z" fill="#F66633" stroke="#081832" stroke-width="2" stroke-miterlimit="10"/>
<path d="M34.8115 75.1748C23.0208 61.0898 4.55253 38.0051 3.70377 34.5461C2.92441 31.3825 3.24406 29.6614 3.52034 28.8992C4.18893 28.5207 5.66928 28.0522 8.50312 28.752C11.6016 29.495 33.0696 48.9415 46.225 61.3957C44.4601 62.1746 42.0647 63.7643 39.3645 67.0571C36.6352 70.3357 35.3864 73.1291 34.8115 75.1748Z" fill="#F94F46" stroke="#081832" stroke-width="2" stroke-miterlimit="10"/>
<path d="M51.973 88.7595C52.0693 88.2146 52.2099 87.6658 52.41 87.0781C52.7949 85.9375 53.4016 84.7435 54.303 83.5564C54.3929 83.4478 54.4682 83.3405 54.5582 83.2318C54.6482 83.1232 54.7379 83.0313 54.8279 82.9227C55.8163 81.8283 56.8293 81.0668 57.8093 80.5597C58.2993 80.2977 58.7882 80.1196 59.2618 79.9764C59.3991 77.6183 58.8887 74.1958 55.872 70.8651C54.4796 69.3317 50.8763 65.8025 46.2247 61.3958C44.4599 62.1747 42.0644 63.7645 39.3643 67.0572C36.6349 70.3359 35.3861 73.1293 34.8112 75.175C38.9831 80.1443 42.3164 83.9994 43.7536 85.4953C46.8754 88.6993 49.9204 89.0617 51.973 88.7595Z" fill="#66B0F0" stroke="#081832" stroke-width="2" stroke-miterlimit="10"/>
</svg>
