<svg width="144" height="139" viewBox="0 0 144 139" fill="none" xmlns="http://www.w3.org/2000/svg">
<path d="M79.8913 59.9132C79.3521 57.4916 77.7507 49.1369 88.4001 48.0567C101.712 46.7063 110.955 55.3675 125.45 50.197C137.047 46.0607 138.474 36.9483 139.597 33.3241" stroke="#0D0D0D" stroke-width="2"/>
<rect x="18.5751" y="43.49" width="114.537" height="62.7581" transform="rotate(17.2161 18.5751 43.49)" fill="black"/>
<rect x="22.3157" y="43.1196" width="112.537" height="60.1428" transform="rotate(17.2161 22.3157 43.1196)" fill="white" stroke="black" stroke-width="2"/>
<rect x="30.9546" y="57.6321" width="11.0842" height="9.84441" rx="3" transform="rotate(17.2161 30.9546 57.6321)" fill="#21A0AA"/>
<rect x="26.6258" y="73.6831" width="11.0842" height="9.84441" rx="3" transform="rotate(17.2161 26.6258 73.6831)" fill="#21A0AA"/>
<rect x="49.1891" y="63.2822" width="11.0842" height="9.84441" rx="3" transform="rotate(17.2161 49.1891 63.2822)" fill="#21A0AA"/>
<rect x="49.1891" y="63.2822" width="11.0842" height="9.84441" rx="3" transform="rotate(17.2161 49.1891 63.2822)" fill="#21A0AA"/>
<rect x="49.1891" y="63.2822" width="11.0842" height="9.84441" rx="3" transform="rotate(17.2161 49.1891 63.2822)" fill="#21A0AA"/>
<rect x="44.8603" y="79.333" width="11.0842" height="9.84441" rx="3" transform="rotate(17.2161 44.8603 79.333)" fill="#21A0AA"/>
<rect x="67.4228" y="68.9321" width="11.0842" height="9.84441" rx="3" transform="rotate(17.2161 67.4228 68.9321)" fill="#21A0AA"/>
<rect x="63.094" y="84.9834" width="11.0842" height="9.84441" rx="3" transform="rotate(17.2161 63.094 84.9834)" fill="#21A0AA"/>
<rect x="85.6571" y="74.5823" width="11.0842" height="9.84441" rx="3" transform="rotate(17.2161 85.6571 74.5823)" fill="#21A0AA"/>
<rect x="81.3283" y="90.6331" width="11.0842" height="9.84441" rx="3" transform="rotate(17.2161 81.3283 90.6331)" fill="#21A0AA"/>
<rect x="103.891" y="80.2324" width="11.0842" height="9.84441" rx="3" transform="rotate(17.2161 103.891 80.2324)" fill="#21A0AA"/>
<rect x="99.5628" y="96.2834" width="11.0842" height="9.84441" rx="3" transform="rotate(17.2161 99.5628 96.2834)" fill="#21A0AA"/>
<rect x="41.7079" y="95.748" width="41.8736" height="9.84441" rx="4.9222" transform="rotate(17.2161 41.7079 95.748)" fill="#21A0AA"/>
</svg>
