<svg width="245" height="72" viewBox="0 0 245 72" fill="none" xmlns="http://www.w3.org/2000/svg">
<path d="M243.343 42.4397C233.658 48.2616 210.903 53.4913 178.973 55.1391C151.524 56.5557 146.526 54.9223 118.346 55.1391C77.6755 55.452 54.3802 54.8925 40.1291 53.0217C28.4583 51.4896 10.9382 48.2133 8.69273 46.1566C7.56611 45.1247 1.51167 40.9794 1.20812 39.0326C-0.289081 29.4306 6.51476 22.1212 16.5519 17.9706C27.8522 13.2978 64.0807 7.70934 76.8049 5.27138C86.3507 3.4424 114.82 2.48345 131.444 1.24449C143.092 0.376388 161.503 2.04474 176.353 2.65803C220.502 4.48132 232.054 10.7599 240.303 17.9706C244.33 21.4916 244.585 28.8177 243.343 31.2895C241.606 33.7612 230.858 41.253 227.624 42.4397C130.974 77.9104 118.346 70.3168 96.3765 70.3168" stroke="#050505" stroke-width="2" stroke-linecap="round"/>
</svg>
