<svg width="143" height="129" viewBox="0 0 143 129" fill="none" xmlns="http://www.w3.org/2000/svg">
<path d="M118.105 24.6653L106.525 27.2226L105.318 21.9737C104.534 18.5642 101.511 16.3141 98.5601 16.9657L36.1923 30.7383L35.4407 27.4695C35.4407 27.4695 34.3174 22.5838 31.2556 23.2599C28.1938 23.9361 3.71955 29.3407 3.71955 29.3407C3.71955 29.3407 0.924384 31.1767 1.7298 34.6799C2.53251 38.1714 4.81137 48.0834 4.81137 48.0834L22.7271 126.009C22.7594 126.149 22.812 126.285 22.8618 126.41C22.9203 127.542 23.7967 128.259 24.878 128.021L25.3225 127.922L118.137 107.426L119.299 107.17C121.886 106.598 123.548 103.991 123.384 101.06C123.389 100.899 123.428 100.743 123.426 100.595L123.386 29.1622C123.399 26.0323 121.025 24.0204 118.105 24.6653Z" fill="#081832"/>
<path d="M33.8477 20.6337C34.1633 20.564 34.4129 20.6326 34.6641 20.8115C34.9462 21.0125 35.2215 21.3527 35.4697 21.7876C35.9633 22.6529 36.1918 23.6084 36.1923 23.6102L37.3026 28.4393L101.153 14.3392C103.14 13.9007 105.45 15.4192 106.07 18.1146L123.969 95.9693C124.587 98.6558 123.174 101.005 121.179 101.446L28.1788 121.983L28.1762 121.971L27.1997 122.187C27.0184 122.227 26.5794 122.09 26.4425 121.495L5.44511 30.166L5.40437 29.967C5.08768 28.1821 6.15962 27.044 6.62752 26.6448L33.8477 20.6337Z" fill="#FFCF2D" stroke="#081832" stroke-width="2"/>
<mask id="path-3-inside-1_46_139" fill="white">
<path d="M120.329 20.4795C123.249 19.8347 125.624 21.8466 125.621 24.9741L125.661 96.4078C125.661 99.5471 123.294 102.606 120.374 103.251L27.116 123.844C25.9943 124.092 25.0842 123.321 25.0829 122.115L25.0485 47.1958C25.0486 47.0112 25.0612 46.8358 25.0714 46.649C25.3203 43.7135 27.5861 40.9602 30.3344 40.3531L120.329 20.4795Z"/>
</mask>
<path d="M120.329 20.4795C123.249 19.8347 125.624 21.8466 125.621 24.9741L125.661 96.4078C125.661 99.5471 123.294 102.606 120.374 103.251L27.116 123.844C25.9943 124.092 25.0842 123.321 25.0829 122.115L25.0485 47.1958C25.0486 47.0112 25.0612 46.8358 25.0714 46.649C25.3203 43.7135 27.5861 40.9602 30.3344 40.3531L120.329 20.4795Z" fill="#FFCF2D"/>
<path d="M120.329 20.4795L119.898 18.5266L120.329 20.4795ZM125.621 24.9741L123.621 24.9723L123.621 24.9752L125.621 24.9741ZM125.661 96.4078L127.661 96.408L127.661 96.4067L125.661 96.4078ZM120.374 103.251L120.805 105.204L120.805 105.204L120.374 103.251ZM27.116 123.844L26.6847 121.891L26.6847 121.891L27.116 123.844ZM25.0829 122.115L23.0829 122.116L23.0829 122.117L25.0829 122.115ZM25.0485 47.1958L23.0485 47.1955L23.0485 47.1967L25.0485 47.1958ZM25.0714 46.649L23.0785 46.4801L23.0759 46.5105L23.0743 46.5409L25.0714 46.649ZM30.3344 40.3531L29.9032 38.4002L29.903 38.4002L30.3344 40.3531ZM120.329 20.4795L120.761 22.4325C121.656 22.2348 122.33 22.4574 122.777 22.837C123.234 23.2248 123.622 23.9231 123.621 24.9723L125.621 24.9741L127.621 24.9758C127.623 22.8976 126.825 21.0262 125.365 19.7874C123.896 18.5403 121.923 18.0794 119.898 18.5266L120.329 20.4795ZM125.621 24.9741L123.621 24.9752L123.661 96.4089L125.661 96.4078L127.661 96.4067L127.621 24.9729L125.621 24.9741ZM125.661 96.4078L123.661 96.4076C123.661 98.6736 121.885 100.869 119.943 101.298L120.374 103.251L120.805 105.204C124.704 104.343 127.66 100.421 127.661 96.408L125.661 96.4078ZM120.374 103.251L119.943 101.298L26.6847 121.891L27.116 123.844L27.5472 125.797L120.805 105.204L120.374 103.251ZM27.116 123.844L26.6847 121.891C26.6759 121.893 26.7109 121.885 26.7768 121.9C26.8432 121.915 26.9139 121.949 26.9745 122.001C27.1082 122.114 27.083 122.206 27.0829 122.112L25.0829 122.115L23.0829 122.117C23.0841 123.23 23.5147 124.31 24.3842 125.049C25.2641 125.796 26.4222 126.046 27.5472 125.797L27.116 123.844ZM25.0829 122.115L27.0829 122.114L27.0485 47.1949L25.0485 47.1958L23.0485 47.1967L23.0829 122.116L25.0829 122.115ZM25.0485 47.1958L27.0485 47.1961C27.0486 47.0822 27.0558 46.9905 27.0684 46.7572L25.0714 46.649L23.0743 46.5409C23.0667 46.6812 23.0486 46.9402 23.0485 47.1955L25.0485 47.1958ZM25.0714 46.649L27.0642 46.818C27.2463 44.6708 28.9519 42.7067 30.7658 42.306L30.3344 40.3531L29.903 38.4002C26.2203 39.2137 23.3943 42.7562 23.0785 46.4801L25.0714 46.649ZM30.3344 40.3531L30.7657 42.3061L120.761 22.4325L120.329 20.4795L119.898 18.5266L29.9032 38.4002L30.3344 40.3531Z" fill="#081832" mask="url(#path-3-inside-1_46_139)"/>
</svg>
