<svg width="25" height="24" viewBox="0 0 25 24" fill="none" xmlns="http://www.w3.org/2000/svg">
<path d="M18.75 0C22.2016 0.000179354 25 2.79833 25 6.25C25 7.01236 24.8622 7.74247 24.6123 8.41797C22.5678 15.121 13.23 23.4962 13.2051 23.5186C13.1531 23.4769 3.59837 15.8079 0.782227 9.2793C0.283993 8.38192 0 7.34917 0 6.25C0 2.79822 2.79822 0 6.25 0C9.70178 0 12.5 2.79822 12.5 6.25C12.5 6.31995 12.4974 6.38959 12.4951 6.45898H12.5049C12.5026 6.38958 12.5 6.31996 12.5 6.25C12.5 2.79822 15.2982 0 18.75 0Z" fill="black"/>
</svg>
