<svg width="253" height="85" viewBox="0 0 253 85" fill="none" xmlns="http://www.w3.org/2000/svg">
<path d="M251.32 50.1366C241.317 57.0396 217.813 63.2405 184.831 65.1944C156.478 66.874 151.316 64.9373 122.208 65.1944C80.1991 65.5654 56.1368 64.902 41.4165 62.6838C29.3614 60.8671 11.2646 56.9824 8.9452 54.5437C7.78149 53.3202 1.52773 48.405 1.21418 46.0967C-0.332309 34.7115 6.69552 26.0445 17.0631 21.1232C28.7355 15.5825 66.1566 8.95623 79.2998 6.06551C89.1599 3.89686 118.567 2.75982 135.738 1.29076C147.769 0.261443 166.787 2.23963 182.125 2.96681C227.728 5.12872 239.66 12.5733 248.18 21.1232C252.34 25.298 252.604 33.9848 251.32 36.9155C249.527 39.8463 238.425 48.7294 235.084 50.1366C135.252 92.1946 122.208 83.1907 99.5157 83.1907" stroke="#050505" stroke-width="2" stroke-linecap="round"/>
</svg>
